# xmcd
#
# Track frame offsets: 
#        182
#        15610
#        25885
#        39835
#        55687
#        105620
#        117260
#        129305
#        141902
#        154670
#        168097
#        180735
#        195697
#        207472
#        222175
#        241370
#        258452
#        271837
#        288982
#        324610
#
# Disc length: 4496 seconds
#
# Revision: 9
# Processed by: cddbd v1.5.2PL0 Copyright (c) Steve Scherf et al.
# Submitted via: ExactAudioCopyFreeDBPlugin 1.0
#
DISCID=1a118e14
DTITLE=Canned Heat - Let's Work Together (The Best Of)
DYEAR=1989
DGENRE=Blues-Rock
TTITLE0=On the Road Again
TTITLE1=Bullfrog Blues
TTITLE2=Rollin' and Tumblin'
TTITLE3=Amphetamine Annie
TTITLE4=Fried Hockey Boogie
TTITLE5=Sic 'em Pigs
TTITLE6=Poor Moon
TTITLE7=Let's Work Together
TTITLE8=Going Up the Country
TTITLE9=Boogie Music
TTITLE10=Same All Over
TTITLE11=Time Was
TTITLE12=Sugar Bee
TTITLE13=Rockin' With the King
TTITLE14=That's Alright Mama
TTITLE15=My Time Ain't Long
TTITLE16=Future Blues
TTITLE17=Pony Blues
TTITLE18=So Sad (The World's in a Tangle)
TTITLE19=The Chipmunk Song
EXTD=Bob Hite - vocals\nAlan Wilson - guitar\nHenry Vestine - guitar\n
EXTD=Larry Taylor - bass\nFrank Cook - drums\nAdolfo de la Parra - dru
EXTD=ms\nHarvey Mandel - guitar\n\nYEAR: 1989 ID3G:   0
EXTT0=(Jones/Wilson)
EXTT1=(Hite/Wilson/Taylor/Vestine/Cook)
EXTT2=(Morganfield)
EXTT3=(Canned Heat)
EXTT4=(Taylor)
EXTT5=(Hite/White)
EXTT6=(Alan Wilson)
EXTT7=(Harrison)
EXTT8=(Wilson)
EXTT9=(L. T. Tatman III)
EXTT10=(Canned Heat)
EXTT11=(Hite Jnr./Vestine/Wilson/Taylor/A. De La Parra)
EXTT12=(Eddie Shuler)
EXTT13=(Taylor/Penniman)
EXTT14=(A. Crudup)
EXTT15=(Alan Wilson)
EXTT16=(Hite Jnr./Wilson/Taylor/Mandel/A. De La Parra)
EXTT17=(Arranged Ano Adapted - Canned Heat)
EXTT18=(Alan Wilson)
EXTT19=(Ros Bagdasarian)
PLAYORDER=
